name rise30.8019peak61.5557fall86.2505.mot
datacolumns 19
datarows 29
range 4.22832300000000 4.27498800000000
endheader
time	ground_force1_vx	ground_force1_vy	ground_force1_vz	ground_force1_px	ground_force1_py	ground_force1_pz	ground_force2_vx	ground_force2_vy	ground_force2_vz	ground_force2_px	ground_force2_py	ground_force2_pz	ground_torque1_x	ground_torque1_y	ground_torque1_z	ground_torque2_x	ground_torque2_y	ground_torque2_z	
4.22832300000000	-55.51516500000000	786.91492300000004	49.00913100000000	0.00480600000000	0.00000000000000	0.11811000000000	-3.58450800000000	15.43307900000000	3.87456400000000	0.00000000000000	0.00000000000000	0.00000000000000	0.00000000000000	13.40665900000000	0.00000000000000	0.00000000000000	1.10989900000000	0.00000000000000	
4.22999200000000	-55.61547100000000	785.59163200000000	48.90371600000000	0.00440900000000	0.00000000000000	0.11807800000000	-4.53160200000000	20.33690400000000	4.98805600000000	0.00000000000000	0.00000000000000	0.00000000000000	0.00000000000000	13.34698800000000	0.00000000000000	0.00000000000000	1.43882900000000	0.00000000000000	
4.23165200000000	-55.72974700000000	784.18481999999995	48.78317600000000	0.00401400000000	0.00000000000000	0.11804100000000	-5.49388200000000	25.61087000000000	6.15038700000000	0.29805400000000	0.00000000000000	-0.05536700000000	0.00000000000000	13.29074400000000	0.00000000000000	0.00000000000000	3.31428500000000	0.00000000000000	
4.23332200000000	-55.85885000000000	782.69429200000002	48.64738100000000	0.00361800000000	0.00000000000000	0.11800000000000	-6.43588300000000	31.13195400000000	7.32607000000000	0.30191300000000	0.00000000000000	-0.05549400000000	0.00000000000000	13.23812300000000	0.00000000000000	0.00000000000000	3.99418200000000	0.00000000000000	
4.23498400000000	-56.00360900000000	781.11985800000002	48.49621600000000	0.00322200000000	0.00000000000000	0.11795300000000	-7.32290900000000	36.77303400000000	8.47956400000000	0.30549400000000	0.00000000000000	-0.05562900000000	0.00000000000000	13.18931500000000	0.00000000000000	0.00000000000000	4.67448500000000	0.00000000000000	
4.23665800000000	-56.16481700000000	779.46132299999999	48.32958300000000	0.00282500000000	0.00000000000000	0.11790200000000	-8.12356500000000	42.41309400000000	9.57793900000000	0.30882000000000	0.00000000000000	-0.05577200000000	0.00000000000000	13.14450000000000	0.00000000000000	0.00000000000000	5.33646200000000	0.00000000000000	
4.23832400000000	-56.34323100000000	777.71848599999998	48.14740200000000	0.00242600000000	0.00000000000000	0.11784600000000	-8.81182300000000	47.94609800000000	10.59311600000000	0.31191200000000	0.00000000000000	-0.05592400000000	0.00000000000000	13.10385000000000	0.00000000000000	0.00000000000000	5.96359400000000	0.00000000000000	
4.23999100000000	-56.53956600000000	775.89112899999998	47.94960500000000	0.00202500000000	0.00000000000000	0.11778500000000	-9.36842300000000	53.28759100000000	11.50344300000000	0.31478600000000	0.00000000000000	-0.05608300000000	0.00000000000000	13.06752700000000	0.00000000000000	0.00000000000000	6.54257900000000	0.00000000000000	
4.24165300000000	-56.75448900000000	773.97901200000001	47.73614400000000	0.00162100000000	0.00000000000000	0.11772000000000	-9.78152800000000	58.37861000000000	12.29453900000000	0.31745700000000	0.00000000000000	-0.05625100000000	0.00000000000000	13.03568000000000	0.00000000000000	0.00000000000000	7.06394000000000	0.00000000000000	
4.24332500000000	-56.98862000000000	771.98187199999995	47.50698300000000	0.00121400000000	0.00000000000000	0.11764900000000	-10.04668100000000	63.18689600000000	12.95940700000000	0.31993900000000	0.00000000000000	-0.05642800000000	0.00000000000000	13.00844900000000	0.00000000000000	0.00000000000000	7.52222400000000	0.00000000000000	
4.24498400000000	-57.24252200000000	769.89941099999999	47.26210500000000	0.00080100000000	0.00000000000000	0.11757400000000	-10.16615800000000	67.70571900000000	13.49792300000000	0.32224300000000	0.00000000000000	-0.05661300000000	0.00000000000000	12.98596100000000	0.00000000000000	0.00000000000000	7.91583600000000	0.00000000000000	
4.24665000000000	-57.51670200000000	767.73129300000005	47.00150400000000	0.00038400000000	0.00000000000000	0.11749400000000	-10.14788500000000	71.95079699999999	13.91584800000000	0.32437800000000	0.00000000000000	-0.05680600000000	0.00000000000000	12.96833300000000	0.00000000000000	0.00000000000000	8.24658300000000	0.00000000000000	
4.24832000000000	-57.81160400000000	765.47713999999996	46.72519500000000	-0.00004000000000	0.00000000000000	0.11741000000000	-10.00407000000000	75.95589699999999	14.22352100000000	0.32635400000000	0.00000000000000	-0.05700800000000	0.00000000000000	12.95566700000000	0.00000000000000	0.00000000000000	8.51901000000000	0.00000000000000	
4.24998700000000	-58.12760600000000	763.13652800000000	46.43320300000000	-0.00047000000000	0.00000000000000	0.11732100000000	-9.74972100000000	79.76771200000000	14.43440600000000	0.32817800000000	0.00000000000000	-0.05721700000000	0.00000000000000	12.94805100000000	0.00000000000000	0.00000000000000	8.73962100000000	0.00000000000000	
4.25165000000000	-58.46501800000000	760.70897700000000	46.12557000000000	-0.00090800000000	0.00000000000000	0.11722700000000	-9.40119200000000	83.44056800000000	14.56362400000000	0.32985800000000	0.00000000000000	-0.05743500000000	0.00000000000000	12.94556200000000	0.00000000000000	0.00000000000000	8.91607800000000	0.00000000000000	
4.25332300000000	-58.82407400000000	758.19395199999997	45.80235300000000	-0.00135500000000	0.00000000000000	0.11712800000000	-8.97486200000000	87.03140999999999	14.62661300000000	0.33139900000000	0.00000000000000	-0.05766100000000	0.00000000000000	12.94825900000000	0.00000000000000	0.00000000000000	9.05643000000000	0.00000000000000	
4.25498500000000	-59.20493300000000	755.59086000000002	45.46362400000000	-0.00181000000000	0.00000000000000	0.11702600000000	-8.48604100000000	90.59542700000000	14.63798200000000	0.33280800000000	0.00000000000000	-0.05789400000000	0.00000000000000	12.95619100000000	0.00000000000000	0.00000000000000	9.16845500000000	0.00000000000000	
4.25665500000000	-59.60767400000000	752.89904300000001	45.10946800000000	-0.00227600000000	0.00000000000000	0.11691900000000	-7.94813800000000	94.18254700000000	14.61062000000000	0.33409000000000	0.00000000000000	-0.05813400000000	0.00000000000000	12.96938700000000	0.00000000000000	0.00000000000000	9.25912700000000	0.00000000000000	
4.25831900000000	-60.03229100000000	750.11777600000005	44.73998400000000	-0.00275200000000	0.00000000000000	0.11680700000000	-7.37212200000000	97.83492300000000	14.55509700000000	0.33525000000000	0.00000000000000	-0.05838200000000	0.00000000000000	12.98786500000000	0.00000000000000	0.00000000000000	9.33423800000000	0.00000000000000	
4.25998300000000	-60.47869200000000	747.24626799999999	44.35528700000000	-0.00324000000000	0.00000000000000	0.11669200000000	-6.76625200000000	101.58542000000000	14.47933600000000	0.33629200000000	0.00000000000000	-0.05863700000000	0.00000000000000	13.01162300000000	0.00000000000000	0.00000000000000	9.39818500000000	0.00000000000000	
4.26165600000000	-60.94669600000000	744.28365799999995	43.95550500000000	-0.00374000000000	0.00000000000000	0.11657300000000	-6.13606100000000	105.45704800000000	14.38853900000000	0.33722100000000	0.00000000000000	-0.05889900000000	0.00000000000000	13.04064600000000	0.00000000000000	0.00000000000000	9.45389000000000	0.00000000000000	
4.26332100000000	-61.43602900000000	741.22901500000000	43.54077900000000	-0.00425300000000	0.00000000000000	0.11644900000000	-5.48454100000000	109.46320600000000	14.28532800000000	0.33804000000000	0.00000000000000	-0.05916700000000	0.00000000000000	13.07490200000000	0.00000000000000	0.00000000000000	9.50285600000000	0.00000000000000	
4.26499200000000	-61.94632200000000	738.08133499999997	43.11126500000000	-0.00478000000000	0.00000000000000	0.11632300000000	-4.81248300000000	113.60856699999999	14.17005200000000	0.33875300000000	0.00000000000000	-0.05944100000000	0.00000000000000	13.11434100000000	0.00000000000000	0.00000000000000	9.54531900000000	0.00000000000000	
4.26665700000000	-62.47711100000000	734.83954700000004	42.66713100000000	-0.00532200000000	0.00000000000000	0.11619200000000	-4.11891100000000	117.89043400000000	14.04120300000000	0.33936500000000	0.00000000000000	-0.05972100000000	0.00000000000000	13.15889700000000	0.00000000000000	0.00000000000000	9.58046800000000	0.00000000000000	
4.26832500000000	-63.02783300000000	731.50250900000003	42.20856000000000	-0.00587800000000	0.00000000000000	0.11605800000000	-3.40157700000000	122.30036200000001	13.89588900000000	0.33987800000000	0.00000000000000	-0.06000700000000	0.00000000000000	13.20848600000000	0.00000000000000	0.00000000000000	9.60670700000000	0.00000000000000	
4.26998800000000	-63.59782200000000	728.06901100000005	41.73574800000000	-0.00645100000000	0.00000000000000	0.11592100000000	-2.65744500000000	126.82588300000000	13.73033100000000	0.34029600000000	0.00000000000000	-0.06029700000000	0.00000000000000	13.26300900000000	0.00000000000000	0.00000000000000	9.62192800000000	0.00000000000000	
4.27165000000000	-64.18631300000000	724.53778000000000	41.24890200000000	-0.00704000000000	0.00000000000000	0.11578000000000	-1.88315000000000	131.45219299999999	13.54032400000000	0.34062200000000	0.00000000000000	-0.06059200000000	0.00000000000000	13.32234700000000	0.00000000000000	0.00000000000000	9.62377200000000	0.00000000000000	
4.27332000000000	-64.79243800000000	720.90747599999997	40.74824500000000	-0.00764500000000	0.00000000000000	0.11563700000000	-1.07539400000000	136.16367199999999	13.32164900000000	0.34086000000000	0.00000000000000	-0.06089100000000	0.00000000000000	13.38636300000000	0.00000000000000	0.00000000000000	9.60986800000000	0.00000000000000	
4.27498800000000	-65.41522500000001	717.17670499999997	40.23401100000000	-0.00826900000000	0.00000000000000	0.11549100000000	-0.23126400000000	140.94516700000000	13.07040800000000	0.34101200000000	0.00000000000000	-0.06119500000000	0.00000000000000	13.45490600000000	0.00000000000000	0.00000000000000	9.57802400000000	0.00000000000000	
